<?xml version="1.0" ?><!DOCTYPE svg  PUBLIC '-//W3C//DTD SVG 1.1//EN'  'http://www.w3.org/Graphics/SVG/1.1/DTD/svg11.dtd'><svg enable-background="new 0 0 512 512" id="Layer_1" version="1.1" viewBox="0 0 512 512" xml:space="preserve" xmlns="http://www.w3.org/2000/svg" xmlns:xlink="http://www.w3.org/1999/xlink"><g><path d="M512,256c0,141.4-114.6,256-256,256C114.6,512,0,397.4,0,256C0,114.6,114.6,0,256,0   C397.4,0,512,114.6,512,256z" fill="#F26522"/><path d="M161.6,373.9c-19.3,0-34.9-15.6-34.9-34.9c0-19.3,15.6-34.9,34.9-34.9   c19.3,0,34.9,15.6,34.9,34.9C196.5,358.2,180.9,373.9,161.6,373.9z M245,373.9c-0.7-65-53.4-117.7-118.4-118.4v-51.7   c93.7,0.7,169.4,76.5,170.1,170.1H245L245,373.9z M332.6,373.9c-0.2-55-21.7-106.8-60.6-145.7c-38.9-38.9-90.5-60.4-145.4-60.6   v-51.7c142.2,0.5,257.4,115.8,257.7,258H332.6L332.6,373.9z" fill="#FFFFFF" id="rss-circle-icon_1_"/></g></svg>