<svg height="24" viewBox="0 0 24 24" width="24" xmlns="http://www.w3.org/2000/svg"><path d="m19.0983701 10.6382791c-3.8681921-2.29709795-10.24833255-2.50841471-13.94107517-1.38769383-.59295905.18004329-1.22001855-.15477715-1.39970846-.7477362-.17968992-.59331243.15477715-1.22001856.74826626-1.40023853 4.23870312-1.28662927 11.28512747-1.0382084 15.73815097 1.60519458.5334158.31662175.7085119 1.00552144.3922435 1.53787708-.3164451.5334158-1.0056981.7092186-1.5378771.3925969m-.1266841 3.4024471c-.2712134.4403021-.8470339.5782941-1.2868059.3079641-3.2248774-1.982243-8.14223246-2.5564733-11.95759533-1.398295-.49472149.1494766-1.01735942-.129511-1.16754273-.6233491-.1491232-.4947215.13004108-1.0162993.62387914-1.1668359 4.35831972-1.32249662 9.77640352-.682009 13.48027742 1.59424.4397721.27086.5781174.8468572.3077874 1.2862759m-1.4682627 3.2674588c-.2157339.3535492-.6761783.4643315-1.0284907.2489509-2.8177923-1.7223375-6.3647687-2.111224-10.54180835-1.1571182-.40249127.0922302-.80374574-.1600778-.89544591-.5623924-.09223022-.4024912.15901763-.8037457.56256902-.8956226 4.57104994-1.0449224 8.49207124-.5952559 11.65493174 1.3376916.3526658.2152039.4638014.6760016.2482442 1.0284907m-5.5034233-17.308185c-6.62732453 0-12 5.37249879-12 11.9998233 0 6.6280313 5.37267547 12.0001767 12 12.0001767 6.6275012 0 12-5.3721454 12-12.0001767 0-6.62732451-5.3724988-11.9998233-12-11.9998233" fill="#1ed760" fill-rule="evenodd"/></svg>